{
  "accessors": [
    {
      "bufferView": 2,
      "componentType": 5126,
      "count": 6218,
      "max": [
        9.2028264999389648,
        6.5466804504394531,
        21.512605667114258
      ],
      "min": [
        -11.135517120361328,
        -11.028262138366699,
        -1.5107935667037964
      ],
      "type": "VEC3"
    },
    {
      "bufferView": 2,
      "byteOffset": 74616,
      "componentType": 5126,
      "count": 6218,
      "max": [
        0.99926233291625977,
        0.99975597858428955,
        0.9988396167755127
      ],
      "min": [
        -0.99954426288604736,
        -0.99800360202789307,
        -0.99997985363006592
      ],
      "type": "VEC3"
    },
    {
      "bufferView": 3,
      "componentType": 5126,
      "count": 6218,
      "max": [
        0.99999696016311646,
        0.99993950128555298,
        0.99987101554870605,
        1
      ],
      "min": [
        -0.99970251321792603,
        -0.99990153312683105,
        -0.99886816740036011,
        -1
      ],
      "type": "VEC4"
    },
    {
      "bufferView": 1,
      "componentType": 5126,
      "count": 6218,
      "max": [
        0.99999994039535522,
        1
      ],
      "min": [
        0,
        0
      ],
      "type": "VEC2"
    },
    {
      "bufferView": 0,
      "componentType": 5125,
      "count": 18318,
      "max": [
        6217
      ],
      "min": [
        0
      ],
      "type": "SCALAR"
    }
  ],
  "asset": {
    "extras": {
      "author": "Loïc Norgeot (https://sketchfab.com/norgeotloic)",
      "license": "CC-BY-4.0 (http://creativecommons.org/licenses/by/4.0/)",
      "source": "https://sketchfab.com/models/671dc08749334cab9afd7827d4b0b152",
      "title": "Iguana sculpture"
    },
    "generator": "Sketchfab-3.22.13",
    "version": "2.0"
  },
  "bufferViews": [
    {
      "buffer": 0,
      "byteLength": 73272,
      "byteOffset": 0,
      "name": "floatBufferViews",
      "target": 34963
    },
    {
      "buffer": 0,
      "byteLength": 49744,
      "byteOffset": 73272,
      "byteStride": 8,
      "name": "floatBufferViews",
      "target": 34962
    },
    {
      "buffer": 0,
      "byteLength": 149232,
      "byteOffset": 123016,
      "byteStride": 12,
      "name": "floatBufferViews",
      "target": 34962
    },
    {
      "buffer": 0,
      "byteLength": 99488,
      "byteOffset": 272248,
      "byteStride": 16,
      "name": "floatBufferViews",
      "target": 34962
    }
  ],
  "buffers": [
    {
      "byteLength": 371736,
      "uri": "scene.bin"
    }
  ],
  "images": [
    {
      "uri": "textures/lowpoly_normal.jpg"
    },
    {
      "uri": "textures/lowpoly_baseColor.jpg"
    }
  ],
  "materials": [
    {
      "doubleSided": true,
      "emissiveFactor": [
        0,
        0,
        0
      ],
      "name": "lowpoly",
      "normalTexture": {
        "index": 0,
        "scale": 1,
        "texCoord": 0
      },
      "pbrMetallicRoughness": {
        "baseColorFactor": [
          1,
          1,
          1,
          1
        ],
        "baseColorTexture": {
          "index": 1,
          "texCoord": 0
        },
        "metallicFactor": 0,
        "roughnessFactor": 0.38394679910000001
      }
    }
  ],
  "meshes": [
    {
      "name": "instant.001_lowpoly_0",
      "primitives": [
        {
          "attributes": {
            "NORMAL": 1,
            "POSITION": 0,
            "TANGENT": 2,
            "TEXCOORD_0": 3
          },
          "indices": 4,
          "material": 0,
          "mode": 4
        }
      ]
    }
  ],
  "nodes": [
    {
      "children": [
        1
      ],
      "name": "RootNode (gltf orientation matrix)",
      "rotation": [
        -0.70710678118654746,
        -0,
        -0,
        0.70710678118654757
      ]
    },
    {
      "children": [
        2
      ],
      "matrix": [
        1,
        0,
        0,
        0,
        0,
        0,
        1,
        0,
        0,
        -1,
        0,
        0,
        0,
        -1224.175048828125,
        776.009765625,
        1
      ],
      "name": "RootNode (model correction matrix)"
    },
    {
      "children": [
        3
      ],
      "matrix": [
        1,
        0,
        0,
        0,
        0,
        0,
        1,
        0,
        0,
        -1,
        0,
        0,
        0,
        0,
        0,
        1
      ],
      "name": "c070f5fc5927482387aee4a84a38098a.fbx"
    },
    {
      "children": [
        4
      ],
      "name": "RootNode"
    },
    {
      "children": [
        5
      ],
      "matrix": [
        100,
        0,
        0,
        0,
        0,
        99.999999999999901,
        4.371138828673792e-06,
        0,
        0,
        -4.371138828673792e-06,
        99.999999999999901,
        0,
        0,
        0,
        0,
        1
      ],
      "name": "instant.001"
    },
    {
      "mesh": 0,
      "name": "instant.001_lowpoly_0"
    }
  ],
  "samplers": [
    {
      "magFilter": 9729,
      "minFilter": 9987,
      "wrapS": 10497,
      "wrapT": 10497
    }
  ],
  "scene": 0,
  "scenes": [
    {
      "name": "OSG_Scene",
      "nodes": [
        0
      ]
    }
  ],
  "textures": [
    {
      "sampler": 0,
      "source": 0
    },
    {
      "sampler": 0,
      "source": 1
    }
  ]
}

